# xmcd CD database generated by RipIT
#
# Track frame offsets:
# 150
# 14960
# 37253
# 51388
# 70044
# 85577
# 102412
# 129918
# 148852
# 168166
# 180924
# 204134
# 219509
#
# Disc length: 3226 seconds
#
# Revision: 0
# Processed by: cddbd v1.5.2PL0 Copyright (c) Steve Scherf et al.
# Submitted via: RipIT 3.9.0 www.suwald.com/ripit/ripit.html on 2015-11-13 at 07:31
#
DISCID=b50c980d
DTITLE=Aladdin Killers - Tangens Cotangens
DYEAR=2015
DGENRE=Jazz
TTITLE0=Tangens
TTITLE1=Gastronomy to the furthest degree
TTITLE2=Please try again later
TTITLE3=Noisome radio waves
TTITLE4=My brain is deffective
TTITLE5=Passport beyond the limits of decency
TTITLE6=B.E.B.O.K.
TTITLE7=Like a bigamist with one salary
TTITLE8=Weathered madness
TTITLE9=Conversations with intellectuals
TTITLE10=Cunning yeast
TTITLE11=You won't fool a slience with noise
TTITLE12=Cotangens
EXTD=
EXTT0=
EXTT1=
EXTT2=
EXTT3=
EXTT4=
EXTT5=
EXTT6=
EXTT7=
EXTT8=
EXTT9=
EXTT10=
EXTT11=
EXTT12=
PLAYORDER=
